<?xml version="1.0" encoding="UTF-8"?>
<svg width="800" height="600" viewBox="0 0 800 600" fill="none" xmlns="http://www.w3.org/2000/svg">
  <defs>
    <linearGradient id="primaryGradient" x1="0%" y1="0%" x2="100%" y2="100%">
      <stop offset="0%" stop-color="#4facfe" />
      <stop offset="100%" stop-color="#00f2fe" />
    </linearGradient>
    <linearGradient id="secondaryGradient" x1="0%" y1="0%" x2="100%" y2="100%">
      <stop offset="0%" stop-color="#a18cd1" />
      <stop offset="100%" stop-color="#fbc2eb" />
    </linearGradient>
    <linearGradient id="accentGradient" x1="0%" y1="0%" x2="100%" y2="100%">
      <stop offset="0%" stop-color="#ff9a9e" />
      <stop offset="100%" stop-color="#fad0c4" />
    </linearGradient>
    <filter id="glow" x="-20%" y="-20%" width="140%" height="140%">
      <feGaussianBlur stdDeviation="8" result="blur" />
      <feComposite in="SourceGraphic" in2="blur" operator="over" />
    </filter>
  </defs>
  
  <!-- Background Elements -->
  <circle cx="400" cy="300" r="250" fill="url(#primaryGradient)" opacity="0.05"/>
  <circle cx="400" cy="300" r="200" fill="url(#primaryGradient)" opacity="0.05"/>
  <circle cx="400" cy="300" r="150" fill="url(#primaryGradient)" opacity="0.05"/>
  
  <!-- Abstract Shapes -->
  <path d="M100 200 L150 150 L200 200 L150 250 Z" fill="url(#primaryGradient)" opacity="0.2" />
  <path d="M600 200 L650 150 L700 200 L650 250 Z" fill="url(#primaryGradient)" opacity="0.2" />
  <path d="M100 400 L150 350 L200 400 L150 450 Z" fill="url(#primaryGradient)" opacity="0.2" />
  <path d="M600 400 L650 350 L700 400 L650 450 Z" fill="url(#primaryGradient)" opacity="0.2" />
  
  <!-- Decorative Lines -->
  <path d="M50 300 Q200 200 400 300 Q600 400 750 300" stroke="url(#primaryGradient)" stroke-width="2" fill="none" opacity="0.3" />
  <path d="M50 320 Q200 220 400 320 Q600 420 750 320" stroke="url(#primaryGradient)" stroke-width="2" fill="none" opacity="0.2" />
  <path d="M50 340 Q200 240 400 340 Q600 440 750 340" stroke="url(#primaryGradient)" stroke-width="2" fill="none" opacity="0.1" />
  
  <!-- Main Figure -->
  <g filter="url(#glow)">
    <!-- Head -->
    <circle cx="400" cy="150" r="40" fill="url(#primaryGradient)" />
    
    <!-- Body -->
    <path d="M400 190 L400 350" stroke="url(#primaryGradient)" stroke-width="30" stroke-linecap="round" />
    
    <!-- Arms -->
    <path d="M400 220 L320 280" stroke="url(#primaryGradient)" stroke-width="20" stroke-linecap="round" />
    <path d="M400 220 L480 280" stroke="url(#primaryGradient)" stroke-width="20" stroke-linecap="round" />
    
    <!-- Legs -->
    <path d="M400 350 L350 450" stroke="url(#primaryGradient)" stroke-width="25" stroke-linecap="round" />
    <path d="M400 350 L450 450" stroke="url(#primaryGradient)" stroke-width="25" stroke-linecap="round" />
  </g>
  
  <!-- Dumbbells -->
  <g transform="translate(250, 280) rotate(-30)">
    <rect x="-40" y="-10" width="80" height="20" rx="5" fill="url(#secondaryGradient)" />
    <circle cx="-50" cy="0" r="20" fill="url(#secondaryGradient)" />
    <circle cx="50" cy="0" r="20" fill="url(#secondaryGradient)" />
  </g>
  
  <g transform="translate(550, 280) rotate(30)">
    <rect x="-40" y="-10" width="80" height="20" rx="5" fill="url(#secondaryGradient)" />
    <circle cx="-50" cy="0" r="20" fill="url(#secondaryGradient)" />
    <circle cx="50" cy="0" r="20" fill="url(#secondaryGradient)" />
  </g>
  
  <!-- Fitness Elements -->
  <circle cx="200" cy="150" r="15" fill="url(#accentGradient)" opacity="0.7" />
  <circle cx="600" cy="150" r="15" fill="url(#accentGradient)" opacity="0.7" />
  <circle cx="200" cy="450" r="15" fill="url(#accentGradient)" opacity="0.7" />
  <circle cx="600" cy="450" r="15" fill="url(#accentGradient)" opacity="0.7" />
  
  <!-- Pulse Line -->
  <path d="M150 500 L200 500 L220 470 L250 530 L280 450 L310 500 L350 500" stroke="url(#primaryGradient)" stroke-width="3" stroke-linecap="round" />
  <path d="M450 500 L500 500 L520 470 L550 530 L580 450 L610 500 L650 500" stroke="url(#primaryGradient)" stroke-width="3" stroke-linecap="round" />
  
  <!-- Abstract Fitness Icons -->
  <rect x="180" y="50" width="30" height="30" rx="5" stroke="url(#primaryGradient)" stroke-width="3" fill="none" />
  <rect x="590" y="50" width="30" height="30" rx="5" stroke="url(#primaryGradient)" stroke-width="3" fill="none" />
  
  <path d="M195 65 L215 65 M205 55 L205 75" stroke="url(#primaryGradient)" stroke-width="3" />
  <path d="M605 65 L625 65 M615 55 L615 75" stroke="url(#primaryGradient)" stroke-width="3" />
  
  <!-- Dynamic Elements -->
  <circle cx="100" cy="100" r="10" fill="url(#primaryGradient)" opacity="0.6" />
  <circle cx="700" cy="100" r="10" fill="url(#primaryGradient)" opacity="0.6" />
  <circle cx="100" cy="500" r="10" fill="url(#primaryGradient)" opacity="0.6" />
  <circle cx="700" cy="500" r="10" fill="url(#primaryGradient)" opacity="0.6" />
  
  <!-- Glow Effects -->
  <circle cx="400" cy="300" r="100" fill="url(#primaryGradient)" opacity="0.05" filter="url(#glow)" />
</svg>
