<?xml version="1.0" encoding="UTF-8"?>
<svg width="200" height="200" viewBox="0 0 200 200" fill="none" xmlns="http://www.w3.org/2000/svg">
  <defs>
    <linearGradient id="gradient" x1="0%" y1="0%" x2="100%" y2="100%">
      <stop offset="0%" stop-color="#4facfe" />
      <stop offset="100%" stop-color="#00f2fe" />
    </linearGradient>
    <filter id="shadow" x="-10%" y="-10%" width="120%" height="120%">
      <feDropShadow dx="0" dy="4" stdDeviation="4" flood-color="#4facfe" flood-opacity="0.3"/>
    </filter>
  </defs>
  <circle cx="100" cy="100" r="90" fill="url(#gradient)" opacity="0.1"/>
  <path d="M100 20C55.8172 20 20 55.8172 20 100C20 144.183 55.8172 180 100 180C144.183 180 180 144.183 180 100C180 55.8172 144.183 20 100 20ZM100 170C61.3401 170 30 138.66 30 100C30 61.3401 61.3401 30 100 30C138.66 30 170 61.3401 170 100C170 138.66 138.66 170 100 170Z" fill="url(#gradient)" filter="url(#shadow)"/>
  <path d="M70 80H50V120H70V80Z" fill="url(#gradient)" filter="url(#shadow)"/>
  <path d="M150 80H130V120H150V80Z" fill="url(#gradient)" filter="url(#shadow)"/>
  <rect x="70" y="90" width="60" height="20" fill="url(#gradient)" filter="url(#shadow)"/>
  <circle cx="60" cy="70" r="10" fill="url(#gradient)" filter="url(#shadow)"/>
  <circle cx="140" cy="70" r="10" fill="url(#gradient)" filter="url(#shadow)"/>
  <circle cx="60" cy="130" r="10" fill="url(#gradient)" filter="url(#shadow)"/>
  <circle cx="140" cy="130" r="10" fill="url(#gradient)" filter="url(#shadow)"/>
</svg>
